<svg width="128" height="128" viewBox="0 0 128 128" fill="none" xmlns="http://www.w3.org/2000/svg">
<path d="M54.4125 72.3894C54.2782 72.3894 54.1419 72.3638 54.0098 72.3106C53.4665 72.089 53.2045 71.4669 53.4282 70.9215L72.6021 24.052C72.8258 23.5087 73.4522 23.2488 73.9912 23.4704C74.5344 23.6919 74.7965 24.314 74.5728 24.8594L55.3988 71.729C55.2305 72.1402 54.8322 72.3894 54.4125 72.3894Z" fill="black"/>
<path d="M75.7168 63.8677C75.4718 63.8677 75.2247 63.7825 75.0244 63.6099C74.577 63.2264 74.5259 62.5554 74.9094 62.108L87.0955 47.8894L74.9073 33.6688C74.5238 33.2235 74.5749 32.5503 75.0223 32.1668C75.4697 31.7834 76.1408 31.8345 76.5242 32.2819L89.3069 47.1949C89.6499 47.5933 89.6499 48.1813 89.3069 48.5797L76.5242 63.4927C76.3155 63.742 76.0172 63.8677 75.7168 63.8677Z" fill="black"/>
<path d="M52.282 63.8677C51.9817 63.8677 51.6834 63.742 51.4746 63.4949L38.692 48.5818C38.349 48.1834 38.349 47.5954 38.692 47.1971L51.4746 32.284C51.8581 31.8366 52.5313 31.7855 52.9766 32.169C53.4218 32.5503 53.4751 33.2235 53.0895 33.6688L40.9034 47.8894L53.0916 62.1101C53.4751 62.5554 53.424 63.2286 52.9766 63.6121C52.7742 63.7825 52.527 63.8677 52.282 63.8677Z" fill="black"/>
<path d="M43.2628 96.4841V98H35.7019V84.6731H37.4968V96.4841H43.2628ZM61.5405 84.6731V98H59.9595V88.2071C59.9595 88.0769 59.9626 87.9374 59.9688 87.7886C59.9812 87.6398 59.9936 87.4879 60.006 87.3329L55.4304 95.6657C55.2878 95.9447 55.0708 96.0842 54.7794 96.0842H54.519C54.2276 96.0842 54.0106 95.9447 53.868 95.6657L49.1994 87.2957C49.2366 87.6243 49.2552 87.9281 49.2552 88.2071V98H47.6742V84.6731H49.0041C49.1653 84.6731 49.2893 84.6886 49.3761 84.7196C49.4629 84.7506 49.5466 84.8374 49.6272 84.98L54.2307 93.1826C54.3051 93.3314 54.3764 93.4864 54.4446 93.6476C54.519 93.8088 54.5872 93.9731 54.6492 94.1405C54.7112 93.9731 54.7763 93.8088 54.8445 93.6476C54.9127 93.4802 54.9871 93.3221 55.0677 93.1733L59.5875 84.98C59.6619 84.8374 59.7425 84.7506 59.8293 84.7196C59.9223 84.6886 60.0494 84.6731 60.2106 84.6731H61.5405ZM78.1914 91.5923V96.7073C77.5218 97.1909 76.8057 97.5536 76.0431 97.7954C75.2867 98.031 74.4559 98.1488 73.5507 98.1488C72.4781 98.1488 71.5109 97.9845 70.6491 97.6559C69.7873 97.3211 69.0495 96.8561 68.4357 96.2609C67.8281 95.6595 67.36 94.9403 67.0314 94.1033C66.7028 93.2663 66.5385 92.3456 66.5385 91.3412C66.5385 90.3244 66.6966 89.3975 67.0128 88.5605C67.3352 87.7235 67.7909 87.0074 68.3799 86.4122C68.9689 85.8108 69.685 85.3458 70.5282 85.0172C71.3714 84.6886 72.3138 84.5243 73.3554 84.5243C73.8824 84.5243 74.3722 84.5646 74.8248 84.6452C75.2774 84.7196 75.6959 84.8312 76.0803 84.98C76.4647 85.1226 76.8212 85.2993 77.1498 85.5101C77.4784 85.7147 77.7853 85.9472 78.0705 86.2076L77.559 87.026C77.4784 87.15 77.373 87.2306 77.2428 87.2678C77.1188 87.2988 76.9793 87.2678 76.8243 87.1748C76.6755 87.088 76.505 86.9826 76.3128 86.8586C76.1206 86.7346 75.885 86.6168 75.606 86.5052C75.3332 86.3874 75.0077 86.2882 74.6295 86.2076C74.2575 86.127 73.8142 86.0867 73.2996 86.0867C72.5494 86.0867 71.8705 86.2107 71.2629 86.4587C70.6553 86.7005 70.1376 87.0508 69.7098 87.5096C69.282 87.9622 68.9534 88.514 68.724 89.165C68.4946 89.8098 68.3799 90.5352 68.3799 91.3412C68.3799 92.1782 68.4977 92.9284 68.7333 93.5918C68.9751 94.249 69.3161 94.8101 69.7563 95.2751C70.2027 95.7339 70.7421 96.0842 71.3745 96.326C72.0069 96.5678 72.7168 96.6887 73.5042 96.6887C74.1242 96.6887 74.6729 96.6205 75.1503 96.4841C75.6339 96.3415 76.1051 96.1462 76.5639 95.8982V92.9687H74.49C74.3722 92.9687 74.2761 92.9346 74.2017 92.8664C74.1335 92.7982 74.0994 92.7145 74.0994 92.6153V91.5923H78.1914ZM88.0488 96.5678C88.5634 96.5678 89.0067 96.5089 89.3787 96.3911C89.7507 96.2733 90.0545 96.109 90.2901 95.8982C90.5319 95.6812 90.7086 95.427 90.8202 95.1356C90.9318 94.838 90.9876 94.5125 90.9876 94.1591C90.9876 93.4709 90.7427 92.9284 90.2529 92.5316C89.7631 92.1286 89.0284 91.9271 88.0488 91.9271H85.1658V96.5678H88.0488ZM85.1658 86.096V90.6437H87.5466C88.055 90.6437 88.4952 90.5879 88.8672 90.4763C89.2454 90.3647 89.5554 90.2097 89.7972 90.0113C90.0452 89.8129 90.2281 89.5742 90.3459 89.2952C90.4637 89.01 90.5226 88.7 90.5226 88.3652C90.5226 87.5778 90.287 87.0043 89.8158 86.6447C89.3446 86.2789 88.613 86.096 87.621 86.096H85.1658ZM87.621 84.6731C88.4394 84.6731 89.1431 84.7537 89.7321 84.9149C90.3273 85.0761 90.814 85.3055 91.1922 85.6031C91.5766 85.9007 91.8587 86.2665 92.0385 86.7005C92.2183 87.1283 92.3082 87.6119 92.3082 88.1513C92.3082 88.4799 92.2555 88.7961 92.1501 89.0999C92.0509 89.3975 91.899 89.6765 91.6944 89.9369C91.4898 90.1973 91.2294 90.4329 90.9132 90.6437C90.6032 90.8483 90.2374 91.0157 89.8158 91.1459C90.7954 91.3319 91.5301 91.6822 92.0199 92.1968C92.5159 92.7052 92.7639 93.3748 92.7639 94.2056C92.7639 94.7698 92.6585 95.2844 92.4477 95.7494C92.2431 96.2144 91.9393 96.6143 91.5363 96.9491C91.1395 97.2839 90.6497 97.5443 90.0669 97.7303C89.4841 97.9101 88.8207 98 88.0767 98H83.3709V84.6731H87.621Z" fill="black"/>
<rect x="23" y="8" width="82" height="107" stroke="black" stroke-width="2"/>
</svg>
